<?xml version="1.0" encoding="UTF-8"?><svg  xmlns="http://www.w3.org/2000/svg" viewBox="0 0 130 140"><defs><style>.cls-1{fill:#48ad32;}.cls-2{fill:#fff;}</style></defs><g id="Layer_35" data-name="Layer 35"><path class="cls-1" d="M4.38,43V97a13.79,13.79,0,0,0,6.9,12L58.1,136a13.82,13.82,0,0,0,13.8,0l46.82-27a13.79,13.79,0,0,0,6.9-12V43A13.79,13.79,0,0,0,118.72,31L71.9,4A13.82,13.82,0,0,0,58.1,4L11.28,31A13.79,13.79,0,0,0,4.38,43Z"/><path class="cls-2" d="M92,98.6H38a.53.53,0,0,1-.3-.56V41.87a.45.45,0,0,1,.27-.45l.24,0H87.55l.21,0c.29.14.34.38.13.66L82,50.17l-8.1,11a.54.54,0,0,1-.88.07c-.63-.69-1.25-1.39-1.87-2.08L68,55.71a.53.53,0,0,0-.91,0L64.18,59.5a.53.53,0,0,0,0,.78l8.9,9.16a.55.55,0,0,0,.91,0l3.79-4.25,7.55-8.46L90.44,51l1.18-1.32a.37.37,0,0,1,.45-.14.4.4,0,0,1,.25.42V98A.53.53,0,0,1,92,98.6ZM51.6,68l-.57.08a9.4,9.4,0,0,0-2.22.5,8,8,0,0,0-3.28,2,6.52,6.52,0,0,0-1.81,4.49,7.44,7.44,0,0,0,.09,1,5.48,5.48,0,0,0,.59,1.93,5.67,5.67,0,0,0,1.7,2,9.06,9.06,0,0,0,1.68,1,18.24,18.24,0,0,0,2.66.93c.85.23,1.71.41,2.57.63.54.13,1.08.26,1.62.43a5.74,5.74,0,0,1,2,.94,1.75,1.75,0,0,1,.68,1.47,1.71,1.71,0,0,1-.26.88,3,3,0,0,1-1.72,1.29,6.35,6.35,0,0,1-2.48.31c-.52,0-1-.07-1.55-.16a10.14,10.14,0,0,1-2.88-1,10.88,10.88,0,0,1-2.24-1.57.51.51,0,0,0-.81.06c-.72,1-1.43,2-2.14,3a.5.5,0,0,0,.09.69l.46.39A13.46,13.46,0,0,0,50,92.14a10.1,10.1,0,0,0,1.54.18c.8,0,1.6,0,2.4,0,.19,0,.38,0,.57,0l1.3-.21a9.64,9.64,0,0,0,2.52-.81,7.16,7.16,0,0,0,2.36-1.76,6.69,6.69,0,0,0,.86-1.26,7.14,7.14,0,0,0,.8-3.23,11.17,11.17,0,0,0-.08-1.29,5.23,5.23,0,0,0-.53-1.82,5.79,5.79,0,0,0-1.65-2,9.29,9.29,0,0,0-2-1.18,23.54,23.54,0,0,0-3.66-1.15c-1-.25-2-.49-3-.75a5.86,5.86,0,0,1-1.89-.8,1.56,1.56,0,0,1-.76-1.23,2,2,0,0,1,.57-1.5,3.46,3.46,0,0,1,2.45-.91c.37,0,.74,0,1.12,0a7.09,7.09,0,0,1,1.59.22,10.18,10.18,0,0,1,2.5.93,11.2,11.2,0,0,1,1.55,1,.54.54,0,0,0,.79-.06L60.53,73c.34-.46.67-.91,1-1.36a.5.5,0,0,0-.08-.72,12.34,12.34,0,0,0-2-1.31,12.84,12.84,0,0,0-4.37-1.47A17.78,17.78,0,0,0,53.34,68C52.75,68,52.16,68,51.6,68ZM75.93,84.6h6.14a.44.44,0,0,0,.5-.5c0-.74,0-1.47-.13-2.2A9.8,9.8,0,0,0,81,77.68,7.88,7.88,0,0,0,78.1,75a9.2,9.2,0,0,0-5.73-1A8.68,8.68,0,0,0,68,75.88,8.85,8.85,0,0,0,65.16,80a10.14,10.14,0,0,0-.38,4.7,8.5,8.5,0,0,0,2.51,5.06,8.7,8.7,0,0,0,4.65,2.44,12.21,12.21,0,0,0,4.09,0,10.91,10.91,0,0,0,4.85-2,.48.48,0,0,0,.13-.74c-.47-.7-.94-1.39-1.42-2.08a.47.47,0,0,0-.75-.14,7.81,7.81,0,0,1-2.39,1.12,7.23,7.23,0,0,1-3,.21,4.69,4.69,0,0,1-3.82-3.69c-.06-.27,0-.31.25-.31Z"/><path class="cls-1" d="M51.6,68c.56,0,1.15,0,1.74,0a17.78,17.78,0,0,1,1.78.14,12.84,12.84,0,0,1,4.37,1.47,12.34,12.34,0,0,1,2,1.31.5.5,0,0,1,.08.72c-.35.45-.68.9-1,1.36l-1.17,1.54a.54.54,0,0,1-.79.06,11.2,11.2,0,0,0-1.55-1,10.18,10.18,0,0,0-2.5-.93,7.09,7.09,0,0,0-1.59-.22c-.38,0-.75-.05-1.12,0a3.46,3.46,0,0,0-2.45.91,2,2,0,0,0-.57,1.5A1.56,1.56,0,0,0,49.55,76a5.86,5.86,0,0,0,1.89.8c1,.26,2,.5,3,.75a23.54,23.54,0,0,1,3.66,1.15,9.29,9.29,0,0,1,2,1.18,5.79,5.79,0,0,1,1.65,2,5.23,5.23,0,0,1,.53,1.82A11.17,11.17,0,0,1,62.35,85a7.14,7.14,0,0,1-.8,3.23,6.69,6.69,0,0,1-.86,1.26,7.16,7.16,0,0,1-2.36,1.76,9.64,9.64,0,0,1-2.52.81l-1.3.21c-.19,0-.38,0-.57,0-.8,0-1.6,0-2.4,0A10.1,10.1,0,0,1,50,92.14a13.46,13.46,0,0,1-6.22-2.81l-.46-.39a.5.5,0,0,1-.09-.69c.71-1,1.42-2,2.14-3a.51.51,0,0,1,.81-.06,10.88,10.88,0,0,0,2.24,1.57,10.14,10.14,0,0,0,2.88,1c.51.09,1,.12,1.55.16a6.35,6.35,0,0,0,2.48-.31,3,3,0,0,0,1.72-1.29,1.71,1.71,0,0,0,.26-.88A1.75,1.75,0,0,0,56.63,84a5.74,5.74,0,0,0-2-.94c-.54-.17-1.08-.3-1.62-.43-.86-.22-1.72-.4-2.57-.63A18.24,18.24,0,0,1,47.78,81a9.06,9.06,0,0,1-1.68-1,5.67,5.67,0,0,1-1.7-2,5.48,5.48,0,0,1-.59-1.93,7.44,7.44,0,0,1-.09-1,6.52,6.52,0,0,1,1.81-4.49,8,8,0,0,1,3.28-2,9.4,9.4,0,0,1,2.22-.5Z"/><path class="cls-1" d="M75.93,84.6H69.85c-.28,0-.31,0-.25.31a4.69,4.69,0,0,0,3.82,3.69,7.23,7.23,0,0,0,3-.21,7.81,7.81,0,0,0,2.39-1.12.47.47,0,0,1,.75.14c.48.69,1,1.38,1.42,2.08a.48.48,0,0,1-.13.74,10.91,10.91,0,0,1-4.85,2,12.21,12.21,0,0,1-4.09,0,8.7,8.7,0,0,1-4.65-2.44,8.5,8.5,0,0,1-2.51-5.06,10.14,10.14,0,0,1,.38-4.7A8.85,8.85,0,0,1,68,75.88,8.68,8.68,0,0,1,72.37,74a9.2,9.2,0,0,1,5.73,1A7.88,7.88,0,0,1,81,77.68a9.8,9.8,0,0,1,1.48,4.22c.08.73.09,1.46.13,2.2a.44.44,0,0,1-.5.5H75.93ZM73.8,81.47H78c.12,0,.18-.07.15-.2s0-.2,0-.3a3.88,3.88,0,0,0-2.23-3,4.51,4.51,0,0,0-3.77-.08,4.09,4.09,0,0,0-2.55,3.26c0,.25,0,.29.26.29Z"/><path class="cls-2" d="M73.8,81.47h-4c-.26,0-.3,0-.26-.29a4.09,4.09,0,0,1,2.55-3.26,4.51,4.51,0,0,1,3.77.08,3.88,3.88,0,0,1,2.23,3c0,.1,0,.2,0,.3s0,.19-.15.2H73.8Z"/></g></svg>